<svg viewBox="0 0 28 28" xmlns="http://www.w3.org/2000/svg" alt="Logo" class="css-1n4pwoc"><path d="M7.94 1.83a4.18 4.18 0 011.528.916c1.44 1.342 2.19 3.684 2.496 6.258.343 2.871.191 6.019.128 8.33 2.25-.978 4.724-.878 7.115-.515 2.059.313 2.465 1.29 1.968 3.285-.978 3.928-6.663 5.448-9.184 2.005-1.198-1.639-1.286-3.662-1.335-5.719-.051-2.193 0-4.655-.43-6.808-.245-1.223-.558-2.438-1.15-3.364a2.824 2.824 0 00-1.019-1.066 3.362 3.362 0 00-1.477-.531.607.607 0 00-.073-.004c-1.778-.195-3.106.96-3.837 1.978-.73 1.018-1.508 2.651-1.885 4.207-1.768 7.3 2.72 14.647 10.018 16.413 7.299 1.767 14.647-2.719 16.412-10.018C28.983 9.898 24.495 2.55 17.197.784A13.541 13.541 0 007.94 1.83z" fill="#ED6D59"></path></svg>